# File created by Blade
# Date/Time:  Tue Apr 07 20:57:09 2015
# Frame Rate: 120.000 fps
#------------------------------------------------------
:FULLY-SPECIFIED
:DEGREES
999
root 6.545764 33.606617 11.052234 376.688894 -31.314165 -724.999725
Spine -12.608019 -2.199773 1.893277
Head 9.953076 4.348026 0.903561
LeftShoulder -22.735738 44.778832 14.748186
LeftArm 63.311070 -40.753456 -79.455338
LeftForeArm -3.284504 0.000000 -0.859327
LeftHand 10.436988 -0.000000 12.519661
LeftHandThumb1 -26.253704 0.000000 33.147579
RightShoulder -4.442493 0.691769 -24.989111
RightArm 16.294931 5.943872 55.386851
RightForeArm -10.916175 -0.000000 10.442176
RightHand 9.250539 0.000000 -5.277079
RightHandThumb1 -24.326973 -0.000000 -32.862282
LeftUpLeg -15.807184 -11.160347 3.052609
LeftLeg 3.390307 -0.000000 -0.000000
LeftFoot 5.957780 -2.515474 -15.076121
LeftToeBase -10.145728 -0.000000 0.000000
RightUpLeg -15.792139 2.133744 -7.636872
RightLeg 12.082404 -0.000000 -0.000000
RightFoot -6.906917 -11.538048 6.976137
RightToeBase -10.075992 -0.000000 0.000000
1000
root 6.359491 33.603820 11.004286 376.359305 -30.030430 -724.809402
Spine -12.493559 -2.458903 1.768197
Head 9.956507 3.925287 1.094744
LeftShoulder -22.433826 44.809101 15.036068
LeftArm 63.643430 -40.835041 -78.752330
LeftForeArm -3.308892 -0.000000 -0.618329
LeftHand 10.693870 -0.000000 11.942866
LeftHandThumb1 -26.253704 0.000000 33.147579
RightShoulder -4.639668 0.512415 -24.918260
RightArm 15.994026 6.221425 55.200061
RightForeArm -11.045033 -0.000000 10.378469
RightHand 9.352301 -0.000000 -5.130623
RightHandThumb1 -24.326973 -0.000000 -32.862282
LeftUpLeg -15.597225 -11.707529 3.340089
LeftLeg 3.368194 -0.000000 -0.000000
LeftFoot 5.928793 -2.879911 -15.149888
LeftToeBase -10.191380 -0.000000 0.000000
RightUpLeg -15.553652 2.015316 -7.976066
RightLeg 12.125862 -0.000000 -0.000000
RightFoot -6.562999 -11.236864 6.309404
RightToeBase -9.853813 -0.000000 0.000000
1001
root 6.171946 33.606758 10.953093 376.088845 -28.739872 -724.703300
Spine -12.370867 -2.758691 1.727061
Head 9.902465 3.514018 1.255474
LeftShoulder -22.165755 44.672269 15.312793
LeftArm 63.808459 -40.923698 -78.002442
LeftForeArm -3.081795 -0.000000 -0.350109
LeftHand 10.647823 -0.000000 12.322732
LeftHandThumb1 -26.253704 0.000000 33.147579
RightShoulder -4.806732 0.375252 -24.859759
RightArm 15.717085 6.858547 55.176620
RightForeArm -11.463907 0.000000 10.292475
RightHand 9.098331 -0.000000 -5.046213
RightHandThumb1 -24.326973 -0.000000 -32.862282
LeftUpLeg -15.413329 -12.241127 3.713341
LeftLeg 3.339167 -0.000000 -0.000000
LeftFoot 5.952880 -3.190279 -15.298209
LeftToeBase -10.602826 -0.000000 0.000000
RightUpLeg -15.157593 2.432254 -8.290707
RightLeg 11.906591 -0.000000 -0.000000
RightFoot -5.785245 -11.747811 5.699156
RightToeBase -9.763396 -0.000000 0.000000
1002
root 5.984547 33.610774 10.902007 375.816652 -27.449988 -724.594709
Spine -12.252858 -3.091981 1.683467
Head 9.876809 3.137591 1.416227
LeftShoulder -21.944922 44.585690 15.541616
LeftArm 63.911840 -40.972401 -77.157900
LeftForeArm -3.033909 -0.000000 -0.077469
LeftHand 10.677557 -0.000000 12.707994
LeftHandThumb1 -26.253704 0.000000 33.147579
RightShoulder -5.001433 0.218617 -24.878253
RightArm 15.448972 7.043766 55.135533
RightForeArm -11.625690 -0.000000 10.152845
RightHand 9.616590 0.000000 -5.006604
RightHandThumb1 -24.326973 -0.000000 -32.862282
LeftUpLeg -15.258631 -12.752933 4.085247
LeftLeg 3.347676 -0.000000 -0.000000
LeftFoot 5.962031 -3.571112 -15.502334
LeftToeBase -10.813326 -0.000000 0.000000
RightUpLeg -14.742437 2.923006 -8.565744
RightLeg 11.745723 -0.000000 -0.000000
RightFoot -4.605831 -12.554932 4.902404
RightToeBase -9.414657 -0.000000 0.000000
1003
root 5.805607 33.614069 10.847543 375.490523 -26.148341 -724.383631
Spine -12.093717 -3.405049 1.533392
Head 9.807467 2.723839 1.538416
LeftShoulder -21.595028 44.386812 15.898816
LeftArm 63.893378 -41.008090 -76.271736
LeftForeArm -2.940568 -0.000000 0.184621
LeftHand 10.791860 -0.000000 12.863218
LeftHandThumb1 -26.253704 0.000000 33.147579
RightShoulder -5.219504 0.055529 -24.852178
RightArm 15.164483 7.218256 55.010490
RightForeArm -11.556043 -0.000000 10.110457
RightHand 9.639746 -0.000000 -4.872965
RightHandThumb1 -24.326973 -0.000000 -32.862282
LeftUpLeg -15.026812 -13.777480 4.472764
LeftLeg 3.088929 -0.000000 -0.000000
LeftFoot 6.050933 -3.484681 -15.757620
LeftToeBase -10.908360 -0.000000 0.000000
RightUpLeg -14.404251 3.166191 -8.842091
RightLeg 11.842062 -0.000000 -0.000000
RightFoot -3.009857 -13.297569 3.760538
RightToeBase -9.064771 -0.000000 0.000000
1004
root 5.619143 33.617920 10.793918 375.146722 -24.861575 -724.199176
Spine -11.920380 -3.702980 1.367921
Head 9.802960 2.281322 1.705253
LeftShoulder -21.254459 44.217500 16.264784
LeftArm 63.931539 -41.077580 -75.468298
LeftForeArm -2.705466 -0.000000 0.488999
LeftHand 10.758235 -0.000000 12.914986
LeftHandThumb1 -26.253704 0.000000 33.147579
RightShoulder -5.343539 -0.278611 -24.802419
RightArm 14.886698 7.713945 54.985136
RightForeArm -11.640732 -0.000000 10.185668
RightHand 9.658019 -0.000000 -4.959118
RightHandThumb1 -24.326973 -0.000000 -32.862282
LeftUpLeg -14.875690 -14.265838 4.718279
LeftLeg 3.135096 -0.000000 -0.000000
LeftFoot 6.134577 -3.850462 -15.612562
LeftToeBase -11.202361 -0.000000 0.000000
RightUpLeg -14.111809 3.269359 -9.009670
RightLeg 12.211803 -0.000000 -0.000000
RightFoot -1.415846 -13.731856 2.618511
RightToeBase -8.164933 -0.000000 0.000000
1005
root 5.432765 33.620880 10.736615 374.831046 -23.624962 -724.020327
Spine -11.752178 -3.974527 1.177838
Head 9.770592 1.848018 1.868145
LeftShoulder -20.954168 44.039669 16.622215
LeftArm 64.022944 -41.180134 -74.772270
LeftForeArm -2.276356 0.000000 0.793333
LeftHand 10.740567 -0.000000 12.989595
LeftHandThumb1 -26.253704 0.000000 33.147579
RightShoulder -5.546957 -0.395013 -24.784202
RightArm 14.581116 8.048445 55.001149
RightForeArm -11.744854 0.000000 10.142460
RightHand 9.551998 -0.000000 -4.912141
RightHandThumb1 -24.326973 -0.000000 -32.862282
LeftUpLeg -14.743917 -14.785497 4.961220
LeftLeg 3.164760 -0.000000 -0.000000
LeftFoot 6.152707 -4.005499 -15.521996
LeftToeBase -11.371182 -0.000000 0.000000
RightUpLeg -13.817529 3.485731 -9.142070
RightLeg 12.572167 -0.000000 -0.000000
RightFoot 0.424655 -13.918934 1.262871
RightToeBase -7.662534 -0.000000 0.000000
1006
root 5.247159 33.626603 10.675472 374.538778 -22.385271 -723.841552
Spine -11.595614 -4.267268 0.988948
Head 9.737983 1.462616 2.021338
LeftShoulder -20.679546 43.868753 16.927399
LeftArm 63.972529 -41.224757 -73.811976
LeftForeArm -2.136269 -0.000000 1.038658
LeftHand 10.705438 -0.000000 12.898498
LeftHandThumb1 -26.253704 0.000000 33.147579
RightShoulder -5.765023 -0.441862 -24.769756
RightArm 14.271209 8.377247 55.025553
RightForeArm -11.923146 -0.000000 10.079666
RightHand 9.505071 -0.000000 -4.708747
RightHandThumb1 -24.326973 -0.000000 -32.862282
LeftUpLeg -14.618636 -15.344300 5.204416
LeftLeg 3.124928 -0.000000 -0.000000
LeftFoot 6.237330 -4.088338 -15.416831
LeftToeBase -11.592779 -0.000000 0.000000
RightUpLeg -13.523859 3.672024 -9.231755
RightLeg 12.902496 -0.000000 -0.000000
RightFoot 2.042800 -13.886889 0.645160
RightToeBase -7.098680 -0.000000 0.000000
1007
root 5.065687 33.631591 10.612340 374.287770 -21.236720 -723.635676
Spine -11.479282 -4.485808 0.756084
Head 9.690098 1.047461 2.121965
LeftShoulder -20.342362 43.576027 17.299188
LeftArm 63.821094 -41.288581 -72.871830
LeftForeArm -1.906259 0.000000 1.207508
LeftHand 10.805557 0.000000 13.013558
LeftHandThumb1 -26.253704 0.000000 33.147579
RightShoulder -6.008118 -0.487641 -24.743524
RightArm 14.028501 8.390807 54.930314
RightForeArm -11.794374 -0.000000 9.958561
RightHand 9.466829 -0.000000 -4.653946
RightHandThumb1 -24.326973 -0.000000 -32.862282
LeftUpLeg -14.526305 -15.854062 5.387535
LeftLeg 3.072957 -0.000000 -0.000000
LeftFoot 6.269001 -4.042926 -15.333663
LeftToeBase -11.614911 -0.000000 0.000000
RightUpLeg -13.308628 3.910049 -9.357031
RightLeg 13.277335 -0.000000 -0.000000
RightFoot 2.858815 -13.677886 1.707228
RightToeBase -7.861205 -0.000000 0.000000
1008
root 4.889066 33.636490 10.543754 374.078337 -20.113934 -723.433169
Spine -11.400347 -4.711291 0.520338
Head 9.683092 0.683537 2.245007
LeftShoulder -20.002504 43.338344 17.672741
LeftArm 63.626637 -41.373431 -71.932959
LeftForeArm -1.656090 -0.000000 1.390084
LeftHand 10.991990 -0.000000 12.968900
LeftHandThumb1 -26.253704 0.000000 33.147579
RightShoulder -6.142122 -0.495140 -24.731619
RightArm 13.693759 8.397413 54.810594
RightForeArm -11.737229 -0.000000 9.818405
RightHand 9.349829 -0.000000 -4.536966
RightHandThumb1 -24.326973 -0.000000 -32.862282
LeftUpLeg -14.497291 -16.263390 5.537315
LeftLeg 3.079388 -0.000000 -0.000000
LeftFoot 6.211240 -3.956270 -15.107251
LeftToeBase -11.460502 -0.000000 0.000000
RightUpLeg -13.130512 4.050666 -9.448222
RightLeg 13.578655 -0.000000 -0.000000
RightFoot 3.051199 -13.265852 3.590769
RightToeBase -9.269331 -0.000000 0.000000
1009
root 4.712705 33.640842 10.475285 373.890307 -19.058603 -723.215522
Spine -11.339884 -4.883171 0.257394
Head 9.693941 0.344358 2.343076
LeftShoulder -19.722318 43.152204 17.978717
LeftArm 63.584927 -41.495520 -71.106766
LeftForeArm -1.482461 -0.000000 1.521400
LeftHand 11.083662 -0.000000 12.808396
LeftHandThumb1 -26.253704 0.000000 33.147579
RightShoulder -6.336396 -0.604233 -24.733140
RightArm 13.564323 8.491056 54.762962
RightForeArm -11.782252 -0.000000 9.568837
RightHand 9.347798 -0.000000 -4.378757
RightHandThumb1 -24.326973 -0.000000 -32.862282
LeftUpLeg -14.469311 -16.534118 5.622869
LeftLeg 3.054564 -0.000000 -0.000000
LeftFoot 6.247895 -3.879054 -15.044131
LeftToeBase -11.531737 -0.000000 0.000000
RightUpLeg -12.952974 4.129465 -9.498364
RightLeg 13.760846 -0.000000 -0.000000
RightFoot 3.276268 -12.669349 4.863568
RightToeBase -11.213935 -0.000000 0.000000
1010
root 4.532237 33.644624 10.404582 373.769006 -18.022431 -723.062296
Spine -11.332458 -5.064998 0.052546
Head 9.713856 0.039804 2.411427
LeftShoulder -19.478052 42.977187 18.281621
LeftArm 63.440342 -41.593136 -70.263265
LeftForeArm -1.390821 -0.000000 1.771502
LeftHand 10.973201 -0.000000 12.728848
LeftHandThumb1 -26.253704 0.000000 33.147579
RightShoulder -6.439562 -0.614134 -24.719383
RightArm 13.305356 8.434627 54.597805
RightForeArm -11.640306 -0.000000 9.336628
RightHand 9.321536 -0.000000 -4.114789
RightHandThumb1 -24.326973 -0.000000 -32.862282
LeftUpLeg -14.506726 -16.587288 5.745170
LeftLeg 3.110301 -0.000000 -0.000000
LeftFoot 6.208508 -3.986262 -14.956989
LeftToeBase -11.336223 -0.000000 0.000000
RightUpLeg -12.780132 4.099820 -9.410118
RightLeg 13.841166 -0.000000 -0.000000
RightFoot 3.451799 -12.206518 5.554358
RightToeBase -12.933437 -0.000000 0.000000
